<svg width="387" height="456" viewBox="0 0 387 456" fill="none" xmlns="http://www.w3.org/2000/svg">
<mask id="mask0_213_9" style="mask-type:luminance" maskUnits="userSpaceOnUse" x="26" y="26" width="335" height="404">
<path d="M361 26H26V430H361V26Z" fill="white"/>
</mask>
<g mask="url(#mask0_213_9)">
<path fill-rule="evenodd" clip-rule="evenodd" d="M241.13 26.3244C238.665 25.1342 235.95 27.4102 236.692 30.044L242.718 51.4344H219.52C212.791 50.7369 205.898 50.3882 198.84 50.3882C174.424 50.3882 151.751 54.6574 130.822 63.1958C109.894 71.7342 91.5519 84.1811 75.7954 100.536C60.0389 116.892 47.7704 136.855 38.9901 160.426C30.33 183.877 26 210.574 26 240.518C26 279.483 33.2769 313.155 47.8306 341.537C62.5045 369.798 82.9519 391.625 109.173 407.018C135.393 422.291 165.824 429.928 200.464 429.928C231.496 429.928 259.04 423.674 283.096 411.167C307.152 398.54 326.035 380.621 339.747 357.411C353.459 334.081 360.314 306.18 360.314 273.71V230.345C360.314 228.591 358.893 227.17 357.139 227.17H208.872C207.118 227.17 205.697 228.591 205.697 230.345V282.802C205.697 284.555 207.118 285.977 208.872 285.977H285.055C284.735 300.744 281.376 313.611 274.976 324.58C268.361 336.125 258.739 345.085 246.11 351.458C233.601 357.712 218.506 360.838 200.825 360.838C181.34 360.838 164.441 356.148 150.128 346.768C135.814 337.267 124.749 323.498 116.93 305.458C109.112 287.42 105.203 265.532 105.203 239.797C105.203 214.062 109.173 192.295 117.111 174.496C125.05 156.578 136.115 142.928 150.308 133.547C160.786 126.681 172.489 122.327 185.416 120.488H242.718L237.833 142.164C237.245 144.77 239.944 146.893 242.339 145.706L357.962 88.4447C360.329 87.2722 360.313 83.8901 357.933 82.741L241.13 26.3244Z" fill="#548CFF"/>
</g>
</svg>
