<svg width="147" height="64" viewBox="0 0 147 64" fill="none" xmlns="http://www.w3.org/2000/svg">
<g clip-path="url(#clip0_207_25)">
<path fill-rule="evenodd" clip-rule="evenodd" d="M34.2589 0.0513947C33.8663 -0.137161 33.434 0.223393 33.5521 0.640635L34.5117 4.02921H30.8175C29.7459 3.91872 28.6483 3.86348 27.5243 3.86348C23.6361 3.86348 20.0255 4.53979 16.6926 5.8924C13.36 7.24502 10.439 9.21681 7.92978 11.8077C5.4206 14.3987 3.46688 17.5612 2.06864 21.2952C0.689545 25.0102 0 29.2394 0 33.983C0 40.1557 1.15882 45.4899 3.47646 49.9861C5.81324 54.463 9.06943 57.9208 13.2451 60.3593C17.4205 62.7788 22.2666 63.9886 27.7829 63.9886C32.7247 63.9886 37.111 62.9979 40.9418 61.0166C44.7727 59.0162 47.7797 56.1776 49.9633 52.5008C52.1469 48.8049 53.2386 44.385 53.2386 39.2412V32.3715C53.2386 32.0936 53.0123 31.8685 52.733 31.8685H29.1219C28.8425 31.8685 28.6162 32.0936 28.6162 32.3715V40.6815C28.6162 40.9592 28.8425 41.1845 29.1219 41.1845H41.2538C41.2028 43.5238 40.6679 45.5621 39.6487 47.2998C38.5953 49.1287 37.063 50.5481 35.0519 51.5577C33.0599 52.5484 30.656 53.0436 27.8404 53.0436C24.7375 53.0436 22.0463 52.3007 19.767 50.8147C17.4876 49.3096 15.7255 47.1284 14.4804 44.2706C13.2354 41.4131 12.6129 37.9457 12.6129 33.8688C12.6129 29.792 13.2451 26.3438 14.5092 23.5241C15.7734 20.6856 17.5355 18.5232 19.7957 17.0371C21.4643 15.9495 23.328 15.2598 25.3866 14.9683H34.5117L33.7338 18.4022C33.6402 18.815 34.07 19.1514 34.4514 18.9633L52.864 9.89223C53.241 9.70649 53.2384 9.17071 52.8594 8.98867L34.2589 0.0513947Z" fill="#548CFF"/>
<path d="M71.6364 45.9362V32.0432H78.3818V56.2376H71.9055V51.843H71.6521C71.1032 53.2605 70.1901 54.4 68.9129 55.261C67.6461 56.1221 66.0997 56.5527 64.2734 56.5527C62.6478 56.5527 61.2175 56.1852 59.9823 55.45C58.7472 54.7149 57.7814 53.6702 57.0847 52.3154C56.3985 50.9608 56.0502 49.3385 56.0396 47.4482V32.0432H62.7849V46.2511C62.7956 47.6792 63.1808 48.8081 63.9409 49.6377C64.701 50.4673 65.7195 50.8821 66.9969 50.8821C67.8097 50.8821 68.5698 50.6983 69.277 50.3308C69.9844 49.9528 70.5543 49.3961 70.9871 48.6611C71.4305 47.926 71.6469 47.0177 71.6364 45.9362Z" fill="#548CFF"/>
<path d="M83.7773 56.2376V32.0432H90.5227V56.2376H83.7773ZM87.1659 28.9244C86.163 28.9244 85.3027 28.5936 84.5848 27.932C83.8776 27.26 83.5239 26.4567 83.5239 25.5221C83.5239 24.598 83.8776 23.8051 84.5848 23.1436C85.3027 22.4714 86.163 22.1354 87.1659 22.1354C88.1687 22.1354 89.0237 22.4714 89.7309 23.1436C90.4488 23.8051 90.8077 24.598 90.8077 25.5221C90.8077 26.4567 90.4488 27.26 89.7309 27.932C89.0237 28.5936 88.1687 28.9244 87.1659 28.9244Z" fill="#548CFF"/>
<path d="M104.888 56.6314C103.041 56.6314 101.368 56.1589 99.8688 55.2138C98.3803 54.2582 97.1981 52.8562 96.3219 51.0082C95.4562 49.1495 95.0236 46.8707 95.0236 44.1719C95.0236 41.3996 95.4722 39.0947 96.3694 37.257C97.2667 35.4088 98.4595 34.0279 99.948 33.1143C101.447 32.1903 103.088 31.7282 104.872 31.7282C106.234 31.7282 107.369 31.9591 108.277 32.4212C109.195 32.8727 109.934 33.4398 110.493 34.1225C111.064 34.7945 111.496 35.456 111.792 36.1071H111.998V23.9785H118.727V56.2376H112.077V52.3628H111.792C111.475 53.0348 111.027 53.7015 110.446 54.3632C109.876 55.0142 109.132 55.555 108.213 55.9856C107.306 56.4162 106.197 56.6314 104.888 56.6314ZM107.026 51.2916C108.113 51.2916 109.032 50.9975 109.781 50.4095C110.541 49.811 111.122 48.9762 111.523 47.9051C111.934 46.8339 112.14 45.5791 112.14 44.1404C112.14 42.7018 111.94 41.4522 111.539 40.3916C111.137 39.331 110.557 38.5118 109.797 37.9343C109.037 37.3567 108.113 37.0679 107.026 37.0679C105.917 37.0679 104.983 37.3673 104.223 37.9658C103.463 38.5643 102.888 39.3939 102.497 40.4545C102.107 41.5151 101.911 42.7438 101.911 44.1404C101.911 45.5476 102.107 46.7919 102.497 47.8736C102.898 48.9446 103.474 49.7847 104.223 50.3938C104.983 50.9923 105.917 51.2916 107.026 51.2916Z" fill="#548CFF"/>
<path d="M135.357 56.7102C132.856 56.7102 130.702 56.2061 128.897 55.1981C127.102 54.1795 125.72 52.7407 124.748 50.882C123.777 49.0129 123.292 46.8024 123.292 44.2506C123.292 41.7619 123.777 39.5777 124.748 37.698C125.72 35.8183 127.087 34.3534 128.85 33.3033C130.623 32.2531 132.702 31.7281 135.088 31.7281C136.693 31.7281 138.186 31.9854 139.569 32.5C140.963 33.004 142.177 33.7654 143.211 34.784C144.256 35.8026 145.069 37.0837 145.65 38.6273C146.23 40.1605 146.521 41.9561 146.521 44.0144V45.8573H125.984V41.6988H140.171C140.171 40.7328 139.96 39.8769 139.538 39.1314C139.115 38.3859 138.53 37.8031 137.78 37.383C137.041 36.9524 136.181 36.7371 135.199 36.7371C134.175 36.7371 133.267 36.9735 132.476 37.446C131.694 37.908 131.082 38.5329 130.639 39.3204C130.195 40.0976 129.968 40.9638 129.958 41.9194V45.8731C129.958 47.0702 130.18 48.1045 130.623 48.9761C131.077 49.8478 131.715 50.5198 132.539 50.9923C133.362 51.4649 134.339 51.7012 135.468 51.7012C136.218 51.7012 136.904 51.5962 137.527 51.3861C138.149 51.1761 138.683 50.8611 139.126 50.441C139.569 50.0211 139.907 49.5064 140.139 48.8974L146.378 49.3069C146.061 50.7981 145.412 52.1003 144.43 53.2133C143.459 54.3159 142.203 55.177 140.662 55.7966C139.131 56.4057 137.363 56.7102 135.357 56.7102Z" fill="#548CFF"/>
</g>
<defs>
<clipPath id="clip0_207_25">
<rect width="146.667" height="64" fill="white"/>
</clipPath>
</defs>
</svg>
